<mxfile host="65bd71144e" modified="2020-10-21T11:06:32.741Z" agent="5.0 (Windows NT 10.0; Win64; x64) AppleWebKit/537.36 (KHTML, like Gecko) Code/1.50.1 Chrome/83.0.4103.122 Electron/9.2.1 Safari/537.36" version="13.6.5" etag="TPJtab793Jhp0IRySe8T">
    <diagram id="VXF_vrMQH1jNgmrJ50Tt" name="Page-1">
        <mxGraphModel dx="597" dy="264" grid="1" gridSize="10" guides="1" tooltips="1" connect="1" arrows="1" fold="1" page="1" pageScale="1" pageWidth="827" pageHeight="1169" math="0" shadow="0">
            <root>
                <mxCell id="0"/>
                <mxCell id="1" parent="0"/>
                <mxCell id="2" value="Jeu" style="swimlane;" vertex="1" parent="1">
                    <mxGeometry x="230" y="100" width="140" height="150" as="geometry"/>
                </mxCell>
                <mxCell id="3" value="Text" style="text;html=1;align=center;verticalAlign=middle;resizable=0;points=[];autosize=1;" vertex="1" parent="2">
                    <mxGeometry x="10" y="40" width="40" height="20" as="geometry"/>
                </mxCell>
                <mxCell id="4" value="Text" style="text;html=1;align=center;verticalAlign=middle;resizable=0;points=[];autosize=1;" vertex="1" parent="2">
                    <mxGeometry x="10" y="60" width="40" height="20" as="geometry"/>
                </mxCell>
                <mxCell id="5" value="" style="endArrow=classic;html=1;entryX=1;entryY=0.5;entryDx=0;entryDy=0;" edge="1" parent="1" target="2">
                    <mxGeometry relative="1" as="geometry">
                        <mxPoint x="610" y="170" as="sourcePoint"/>
                        <mxPoint x="540" y="170" as="targetPoint"/>
                    </mxGeometry>
                </mxCell>
                <mxCell id="6" value="Label" style="edgeLabel;resizable=0;html=1;align=center;verticalAlign=middle;" connectable="0" vertex="1" parent="5">
                    <mxGeometry relative="1" as="geometry"/>
                </mxCell>
            </root>
        </mxGraphModel>
    </diagram>
</mxfile>